<svg class="svg-icon" style="width: 1em; height: 1em;vertical-align: middle;fill: currentColor;overflow: hidden;" viewBox="0 0 1024 1024" version="1.1" xmlns="http://www.w3.org/2000/svg"><path d="M223.78 278.62s-60.91 25.31-73 37.85 34 453.93 58.42 500.87c18.58 35.73 72 60.32 72 60.32l-22.35-44z" fill="#14A0DC" /><path d="M871.23 316.47c-12.07-12.54-73-37.85-73-37.85l-35.07 555-10.56 20.78c4.13-9.32 8-19.58 9.85-28.33 5.36-25.74-501.56 1.37-501.56 1.37s18.11 41.2 47.44 59.73L738.8 882s1-1.72 2.53-4.61c5.46-2.59 53.95-26.38 71.48-60.08 24.41-46.91 70.48-488.31 58.42-500.84z" fill="#14A0DC" /><path d="M288.2 887.36a9 9 0 0 1-3.47-0.7c-2.59-1.08-63.64-27-83.5-65.17-17.29-33.26-39.55-227.83-43.84-266.5-6.64-59.87-11.95-117-15-161-5.23-76.41-1.61-80.17 1.89-83.8 12.72-13.22 65.54-35.58 76-39.92a9 9 0 0 1 12.44 7.74l34.96 552.69 28.05 42.72a9 9 0 0 1-7.53 13.94zM158.44 321.63c-2.8 15 3 108.42 17.7 239.12 15.12 134.45 31.23 233.53 41.06 252.43 8.62 16.58 27.77 31 44.49 41.2l-10.37-15.79a9 9 0 0 1-1.46-4.37L215.6 291.9c-21.53 9.42-48.82 22.54-57.16 29.73zM734.66 886.66a9 9 0 0 1-7.55-13.9l27.24-42 34.92-552.68a9 9 0 0 1 12.44-7.74c10.46 4.34 63.28 26.7 76 39.92 3.5 3.63 7.12 7.39 1.89 83.8-3 43.93-8.32 101.09-15 161-4.29 38.67-26.55 233.24-43.85 266.5-19.83 38.14-80.1 63.36-82.65 64.44a9 9 0 0 1-3.44 0.66z m71.77-594.76l-34.26 542.32a9.06 9.06 0 0 1-1.43 4.33l-10.07 15.53c16.53-10 35.52-24.29 44.15-40.9 9.83-18.9 25.95-118 41.06-252.43 14.7-130.7 20.51-224.1 17.71-239.12-8.34-7.19-35.59-20.31-57.16-29.73z m-43.25 541.75z m100.16-513.1z"  /><path d="M798.25 278.62s-241.64-38.17-296.19-38.17-278.28 38.17-278.28 38.17l33.14 543.46c24.28 4.35 28.94 2.8 60.29 2.8h389.25c31.28 0 11.39 0 58.53-2.63l39-536.87" fill="#AEE8FF" /><path d="M511.74 555.51c-201.13 0-291-247.16-291-241.27 0 32.51 75.75 271.53 291.16 271.53 214 0 292.24-230.08 292.24-271.16-0.04-10.02-84.51 240.9-292.4 240.9zM353.36 732.1c-70.57-30.87-106.61-90-106.61-90l14.16 180.12 403.26 2.61s-88.28-19-119.57-25.88C511.71 791.8 423.93 763 353.36 732.1z" fill="#74CFFF" /><path d="M220.58 284c0-12 109.21-43.53 294.15-43.53 134.89 0 289.26 25.23 289.26 44.93 0 41.08-78.29 270.13-292.25 270.13-215.4-0.02-291.16-239.04-291.16-271.53z" fill="#FF99AA" /><path d="M372.85 364.24m-27.63 0a27.63 27.63 0 1 0 55.26 0 27.63 27.63 0 1 0-55.26 0Z" fill="#AEE8FF" /><path d="M656.92 364.24m-27.63 0a27.63 27.63 0 1 0 55.26 0 27.63 27.63 0 1 0-55.26 0Z" fill="#AEE8FF" /><path d="M511.75 564.51c-117.5 0-191.92-69.24-233.66-127.32-47.36-65.91-66.5-135.36-66.5-153.21 0-7.93 7.52-13.82 26-20.34 14.68-5.19 35.13-10.3 59.12-14.76 42.7-7.95 115.2-17.43 218.07-17.43 63 0 136.48 5.68 196.62 15.19 28.4 4.49 52.29 9.61 69.07 14.81 23.13 7.16 32.57 14.1 32.57 23.93 0 13.26-6.21 37.34-16.2 62.82a408.4 408.4 0 0 1-51.46 93c-41.8 56.26-116.23 123.31-233.63 123.31z m-282-277.85c1.88 19.18 21.47 82.29 63 140C318 462 347.44 490 380.08 510c39.55 24.24 83.85 36.53 131.66 36.53s91.85-11.84 131.35-35.18c32.83-19.4 62.36-46.6 87.78-80.84A390.4 390.4 0 0 0 780 341.63c9.72-24.8 14.39-44.77 14.91-54.54-4.81-3.93-28.6-14.13-95.39-24A1318.91 1318.91 0 0 0 514.7 249.5c-95.5 0-164.18 8.36-205 15.37-48.96 8.37-73.51 17.6-79.97 21.79z"  /><path d="M705.59 897H316.34c-17.3 0-34.18-8.66-47.54-24.38-12.09-14.22-19.69-32.4-20.86-49.89L213 299.29a9 9 0 1 1 18-1.2l34.9 523.39c1.78 26.58 24.19 57.47 50.44 57.47h389.25c26.15 0 48.57-30.82 50.42-57.33l38.29-528.57a9 9 0 1 1 18 1.3L774 822.9c-1.21 17.42-8.83 35.56-20.9 49.74-13.4 15.68-30.26 24.36-47.51 24.36z"  /><path d="M372.84 373.24a9 9 0 0 1-8.95-8.19 431.77 431.77 0 0 1 1.59-77.73c6.31-57.87 23-102 49.65-131.11 23.87-26.1 55.25-39.33 93.26-39.33 45.53 0 82 13.94 108.46 41.43 54.62 56.82 50.72 155.57 49.26 192.75-0.21 5.25-0.42 10.68-0.26 12.07a9 9 0 0 1-17.85 2.23c-0.33-2.69-0.19-6.77 0.13-15 1.39-35.08 5.06-128.28-44.25-179.57-22.91-23.82-55-35.9-95.48-35.9-32.74 0-59.63 11.25-79.95 33.45-29.84 32.61-41 83.58-45 120.59a422.6 422.6 0 0 0-1.6 74.52 9 9 0 0 1-8.16 9.77q-0.44 0.02-0.85 0.02z"  /><path d="M372.85 407.18a42.94 42.94 0 1 1 42.93-42.94 43 43 0 0 1-42.93 42.94z m0-67.87a24.94 24.94 0 1 0 24.93 24.93 25 25 0 0 0-24.93-24.93zM656.92 407.18a42.94 42.94 0 1 1 42.94-42.94 43 43 0 0 1-42.94 42.94z m0-67.87a24.94 24.94 0 1 0 24.94 24.93 25 25 0 0 0-24.94-24.93zM757.72 831.27H260.91a9 9 0 0 1 0-18h496.81a9 9 0 0 1 0 18z"  /><path d="M766.63 296.17a157.34 157.34 0 0 0-42.38-12.41 10 10 0 0 0-2.31 19.87 139.36 139.36 0 0 1 36.45 10.76 10 10 0 1 0 8.24-18.22zM754.38 531a10 10 0 0 0-10.75 9.19l-5.82 74.29a10 10 0 0 0 9.19 10.77h0.79a10 10 0 0 0 10-9.22l5.82-74.28a10 10 0 0 0-9.23-10.75zM312.37 269.93l-13.73 3.33A10 10 0 0 0 301 293a9.61 9.61 0 0 0 2.37-0.29l13.72-3.33a10 10 0 1 0-4.71-19.43z" fill="#FFFFFF" /></svg>