<svg class="svg-icon" style="width: 1em; height: 1em;vertical-align: middle;fill: currentColor;overflow: hidden;" viewBox="0 0 1024 1024" version="1.1" xmlns="http://www.w3.org/2000/svg"><path d="M963.65056 733.44c23.89504 88.74496 8.53504 154.7776 8.53504 154.7776H145.54624V194.4576h449.3312v334.08h0.2048c0 83.93216 167.18336 83.72736 167.18336 83.72736 107.52 5.12 185.64608 62.72512 201.38496 121.17504z" fill="#BF886D" /><path d="M451.61984 264.8064S390.09792 341.65248 307.65056 372.48c-36.80256 13.76256-33.48992 74.1376-33.48992 74.1376v441.6h-128.6144V264.8064h306.0736z" fill="#956134" opacity=".3" /><path d="M666.63936 79.58016c-33.21856-33.98656-78.78656-21.73952-96.55296-8.71936-17.77152-13.02016-45.3888-15.04768-55.14752-15.04768-9.74848 0-37.36064 2.02752-55.13216 15.04256-17.7664-13.01504-36.21888-15.04256-45.97248-15.04256s-28.19072 2.02752-45.952 15.03744c-17.76128-13.0048-36.1984-15.03744-45.952-15.03744s-28.19584 2.02752-45.96224 15.03744c-17.76128-13.0048-36.20352-15.03744-45.95712-15.03744s-28.20096 2.02752-45.96224 15.04256c-17.76128-13.00992-49.51552-15.04768-66.28352-14.04416-22.81984 1.36704-45.08672 16.09216-48.14336 61.9008l-0.18432 97.29024c-3.05664 37.31456 33.60256 78.55616 72.69376 45.50656 20.36736 20.56704 30.36672 23.40864 41.91744 23.40864 9.74848 0 28.20096-2.02752 45.96224-15.03744 17.76128 13.0048 36.20864 15.03744 45.96224 15.03744s28.19584-2.02752 45.95712-15.03232c17.76128 13.0048 36.20352 15.03232 45.95712 15.03232s28.19584-2.02752 45.95712-15.03232c17.76128 12.99968 36.20352 15.03232 45.95712 15.03232s28.20608-2.02752 45.97248-15.04256c17.7664 13.01504 36.21376 15.04256 45.96736 15.04256 9.7536 0 28.22144-2.02752 45.99296-15.05792 17.78176 13.0304 36.23936 15.05792 45.99296 15.05792 0 0 39.71584 0 39.71584-68.9152V162.6112c0-43.32032-4.9664-70.8096-16.80384-83.03104z" fill="#F7D5A9" /><path d="M594.87744 271.872v39.2192c-16.8448 11.264-33.8944 13.056-43.1104 13.056-9.7792 0-28.2112-1.9968-45.97248-15.04768-17.77152 13.056-36.2496 15.04768-45.9776 15.04768-9.7792 0-28.2112-1.9968-45.97248-15.0016-17.77152 13.0048-36.1984 15.0016-45.93152 15.0016-9.77408 0-28.2112-1.9968-45.97248-15.0016-17.7664 13.0048-36.1984 15.0016-45.9264 15.0016-9.7792 0-28.21632-1.9968-45.9776-15.0016-17.7664 13.0048-36.1984 15.0016-45.97248 15.0016-10.8544 0-20.4288-2.50368-38.50752-20.0704v-39.2704c18.0736 17.56672 27.648 20.12672 38.50752 20.12672 9.77408 0 28.2112-2.048 45.97248-15.0528 17.7664 13.0048 36.1984 15.0528 45.9776 15.0528 9.72288 0 28.16-2.048 45.9264-15.0528 17.7664 13.0048 36.1984 15.0528 45.97248 15.0528 9.728 0 28.16-2.048 45.93152-15.0528 17.7664 13.0048 36.19328 15.0528 45.97248 15.0528 9.728 0 28.2112-2.048 45.9776-15.0528 17.7664 13.0048 36.19328 15.0528 45.97248 15.0528 9.21088-0.00512 26.26048-1.84832 43.1104-13.06112z" fill="#956134" opacity=".3" /><path d="M145.54624 888.2176v85.38624h66.95424l75.21792-16.5376 54.69696 16.5376 95.67232-16.5376 54.69184 16.5376 95.67232-16.5376 54.69696 16.5376 95.66208-16.5376 54.69184 16.5376 95.6672-16.5376 83.44064 14.57152V888.2176z" fill="#F7D5A9" /><path d="M401.75616 530.56a43.776 43.776 0 0 1-43.776 43.776H138.71616a43.776 43.776 0 0 1 0-87.552h219.264a43.776 43.776 0 0 1 43.776 43.776z" fill="#956134" /><path d="M343.08096 530.56m-71.552 0a71.552 71.552 0 1 0 143.104 0 71.552 71.552 0 1 0-143.104 0Z" fill="#F7D5A9" /><path d="M972.19072 888.2176H273.46432l426.13248-281.91232c33.38752 5.888 62.0032 5.9392 62.6688 5.9392 107.52 5.12 185.6512 62.72 201.3696 121.1904 23.91552 88.73472 8.55552 154.78272 8.55552 154.78272z" fill="#956134" opacity=".3" /><path d="M979.6864 734.16704l-0.0256-0.11264a122.71616 122.71616 0 0 0-0.9472-3.7632l-0.24576-0.93696a85.0432 85.0432 0 0 0-1.87904-6.13376 104.42752 104.42752 0 0 0-4.18304-10.59328c-0.10752-0.23552-0.2048-0.47104-0.31744-0.70656-0.18944-0.41472-0.35328-0.8448-0.54784-1.2544a127.39072 127.39072 0 0 0-10.4192-18.29888 122.7776 122.7776 0 0 0-4.20352-5.92896c-1.40288-1.85344-2.8672-3.75808-4.39296-5.61152-1.54624-1.8944-3.15392-3.7888-4.79744-5.59104a162.08384 162.08384 0 0 0-7.52128-7.86432l-0.30208-0.30208c-0.4608-0.44544-0.92672-0.93696-1.38752-1.37216l-2.0736-1.98144c-0.32256-0.31744-0.68096-0.60416-1.01376-0.91648-1.02912-0.96256-2.09408-1.90464-3.15904-2.85184-0.27648-0.24064-0.53248-0.50176-0.81408-0.73728a67.2256 67.2256 0 0 0-1.64352-1.42848c-32.87552-28.288-80.29696-50.69824-139.08992-58.38336l-2.16064-0.27648a324.54144 324.54144 0 0 0-15.48288-1.58208l-2.53952-0.19456a198.27712 198.27712 0 0 0-6.81984-0.39936c-0.24576-0.01024-0.48128-0.03584-0.72704-0.04608h-0.1024l-0.0512-0.00512-0.49664-0.01024h-0.08704c-0.0512 0-0.98304-0.00512-2.60608-0.04096l-0.65536-0.01536-0.50688-0.01024a194.4064 194.4064 0 0 1-2.31936-0.08192l-0.11264 0.00512a83.2 83.2 0 0 1-1.0496-0.03584l-4.8384-0.21504c-1.84832-0.09728-3.82464-0.2048-6.01088-0.34816-0.88064-0.06144-1.76128-0.11264-2.6368-0.19456a18.49344 18.49344 0 0 0-1.42848-0.1024l-0.61952-0.05632c-1.3824-0.09728-2.85696-0.21504-4.34176-0.33792-1.1008-0.09728-2.24768-0.20992-3.39456-0.32256a223.12448 223.12448 0 0 1-4.28032-0.44032l-0.6656-0.06656-1.22368-0.128a416.70144 416.70144 0 0 1-12.3392-1.56672l-0.33792-0.05632a338.2784 338.2784 0 0 1-10.10688-1.60768l-0.52736-0.08704-0.52736-0.09728c-41.7792-7.50592-91.29984-24.44288-91.29984-62.55104l-0.1792-239.1552a94.99648 94.99648 0 0 0 33.4592 6.29248c0.54784 0 55.0912-0.96256 55.0912-84.2752V157.99808c0-49.7152-6.50752-78.6176-21.18144-93.78816-17.03424-17.39776-38.84544-26.5984-63.0784-26.5984-17.59232 0-33.20832 4.864-44.39552 10.65472C547.7888 36.51072 520.7552 35.84 514.94912 35.84c-5.78048 0-32.60928 0.6656-54.92224 12.27264A94.47424 94.47424 0 0 0 413.82912 35.84c-9.76384 0-27.5712 1.73056-45.93664 12.14464C349.49632 37.56544 331.68896 35.84 321.92512 35.84s-27.5712 1.73056-45.93664 12.14464A94.4128 94.4128 0 0 0 230.02624 35.84a94.4128 94.4128 0 0 0-46.30016 12.33408c-20.64896-10.32704-46.87872-11.57632-58.32192-11.57632-3.09248 0-5.95456 0.09216-8.54528 0.24064-17.34144 1.0496-58.16832 10.58304-62.5664 76.20096l-0.18944 97.76128c-1.44896 19.89632 5.67296 40.42752 19.13344 55.03488 10.9824 11.92448 25.13408 18.49344 39.85408 18.49344 5.71392 0 11.43808-1.11616 17.09568-3.06688v45.8752a15.36 15.36 0 1 0 30.72 0V299.9296c0.4608-1.2544 0.85504-2.6112 1.20832-4.05504l0.95232 0.41472 2.06336 0.80384c0.61952 0.22528 1.22368 0.4352 1.82272 0.63488 1.08032 0.39424 2.19136 0.70656 3.23072 0.96256 4.30592 1.09056 8.70912 1.60256 13.85984 1.60256a94.4128 94.4128 0 0 0 45.9776-12.15488 94.464 94.464 0 0 0 45.97248 12.15488c9.74336 0 27.53024-1.73056 45.9264-12.15488a94.4896 94.4896 0 0 0 45.9776 12.15488c1.1008 0 2.32448-0.03072 3.61472-0.08704 0.39936-0.01536 0.8192-0.04608 1.23392-0.07168 0.96256-0.05632 1.96096-0.12288 3.01056-0.21504l1.58208-0.1536c1.09056-0.11264 2.2272-0.26624 3.38944-0.43008 0.51712-0.07168 1.00864-0.13312 1.54624-0.21504 1.6896-0.27136 3.44064-0.58368 5.25312-0.97792 0.19456-0.04096 0.39936-0.1024 0.59904-0.14336 1.61792-0.36352 3.28192-0.78336 4.98176-1.25952 0.62464-0.17408 1.25952-0.37888 1.88928-0.57344a93.50656 93.50656 0 0 0 6.20032-2.11456c0.4864-0.18432 0.95744-0.3328 1.43872-0.53248a414.336 414.336 0 0 1-14.80192 12.87168c-28.67712 23.7824-57.47712 41.17504-85.59104 51.712-45.34272 16.96768-43.75552 82.07872-43.45856 88.88832v24.46336H160.90624v-41.91232a15.36 15.36 0 1 0-30.72 0v42.58816a58.624 58.624 0 0 0-33.29024 16.61952 58.75712 58.75712 0 0 0-17.30048 41.83552c0 29.6704 22.03136 54.23616 50.59072 58.3936v283.8784h-0.00512v116.10624h83.98336l72.9344-16.04096 54.34368 16.4352 95.67744-16.5376 54.69184 16.5376 95.67232-16.5376 54.70208 16.5376 95.66208-16.5376 54.69696 16.5376 96.6144-16.70656 98.816 17.25952v-102.21568c2.95424-15.77984 11.67872-75.776-8.28928-153.52832zM95.83104 245.02272c-7.6544-8.30976-12.00128-21.01248-11.0592-32.35328l0.2048-98.05824c3.19488-45.2608 26.17344-46.64832 33.70496-47.104 2.01728-0.11776 4.28032-0.18432 6.72256-0.18432 16.4864 0 38.16448 2.97472 49.56672 11.32544l9.07264 6.64064 9.07264-6.64064c14.3616-10.51648 29.2864-12.0832 36.90496-12.0832 7.61344 0 22.53824 1.57184 36.89984 12.0832l9.088 6.65088 9.07264-6.66624C299.39712 68.13184 314.31168 66.56 321.92512 66.56c7.61856 0 22.54336 1.57184 36.90496 12.0832l9.088 6.65088 9.07264-6.66624C391.30112 68.13184 406.21568 66.56 413.82912 66.56s22.53824 1.57184 36.91008 12.0832l9.06752 6.64064 9.07264-6.64064c13.056-9.55904 35.84-12.0832 46.06464-12.0832s33.00864 2.52416 46.07488 12.0832l9.06752 6.64064 9.07264-6.64064c7.00928-5.13536 20.66944-10.3168 35.3792-10.3168 16.01024 0 29.84448 5.84704 41.06752 17.30048 5.68832 5.888 12.47744 23.22432 12.47744 72.3712V211.4048c0 40.82176-15.44192 52.84864-24.67328 53.5552-7.7056-0.04608-22.42048-1.71008-36.59776-12.08832l-9.10336-6.66624-9.08288 6.69696c-0.65536 0.4864-1.26976 0.9472-2.2784 1.5872-1.01888 0.68096-1.9968 1.29024-3.01056 1.84832l-0.45568 0.26624a42.1888 42.1888 0 0 1-2.25792 1.2544 45.72672 45.72672 0 0 1-4.93056 2.26816l-0.58368 0.23552a28.16 28.16 0 0 1-2.05824 0.78336l-0.93696 0.34816a14.32576 14.32576 0 0 1-1.56672 0.512l-0.67584 0.19968c-0.76288 0.24576-1.48992 0.44032-1.8432 0.54272l-0.78336 0.19456c-0.53248 0.13312-1.04448 0.27136-1.93536 0.4608-2.19648 0.50688-4.56704 0.90624-6.89664 1.17248-1.07008 0.10752-2.10432 0.18944-3.456 0.29696l-0.40448 0.01536c-1.00352 0.03584-1.92512 0.07168-2.78528 0.07168-7.61344 0-22.53824-1.57184-36.90496-12.08832l-9.07264-6.64064-9.07264 6.64064c-14.36672 10.5216-29.2864 12.08832-36.89984 12.08832-4.18816 0-10.79296-0.49152-18.40128-2.80064a61.88544 61.88544 0 0 1-18.46784-9.26208l-9.07776-6.69184-9.10336 6.66112a62.90944 62.90944 0 0 1-36.84864 12.08832c-7.61344 0-22.53312-1.57184-36.91008-12.08832l-9.06752-6.64064-9.07264 6.64064a62.90944 62.90944 0 0 1-36.84864 12.08832c-7.61344 0-22.53312-1.57184-36.89984-12.08832l-9.07264-6.64064-9.06752 6.64064c-14.37696 10.5216-29.29664 12.08832-36.91008 12.08832-2.56512 0-4.51584-0.2048-6.30784-0.66048l-4.1472-1.56672c-0.27648-0.128-0.55808-0.29696-0.8704-0.47104l-2.32448-1.37216c-0.33792-0.2048-0.6912-0.39936-1.02912-0.65024l-1.6128-1.1264-0.49152-0.37376-0.44544-0.34304c-0.6912-0.512-1.35168-1.04448-2.04288-1.59744l-2.74432-2.30912c-1.792-1.55648-3.71712-3.29728-5.90336-5.44256a168.0896 168.0896 0 0 1-3.09248-3.0464l-9.98912-9.98912-10.78272 9.11872c-6.65088 5.62176-13.09696 8.46848-19.15904 8.46848-7.76704 0.01536-13.69088-4.65408-17.29536-8.57088zM313.03168 386.8672c31.3344-11.74016 63.104-30.85824 94.42304-56.832a461.39392 461.39392 0 0 0 34.26816-31.58016c7.32672 1.44896 13.6192 1.83296 18.08384 1.83296 9.76384 0 27.5712-1.73056 45.97248-12.15488a94.47424 94.47424 0 0 0 45.9776 12.15488c1.18272 0 2.4576-0.04096 3.85024-0.09216l1.87392-0.1024c1.27488-0.1024 2.66752-0.20992 4.25984-0.37376a91.88864 91.88864 0 0 0 10.09664-1.69984c0.96768-0.19456 1.94048-0.4352 2.93376-0.6912l1.02912-0.26112c1.01376-0.2816 2.02752-0.5632 3.07712-0.896l0.62976-0.17408v232.53504l0.2048 15.36h1.56672c5.26336 25.01632 25.21088 52.37248 80.25088 69.1712l-202.12736 133.71904a15.36 15.36 0 1 0 16.9472 25.62048l226.6624-149.94944a413.91616 413.91616 0 0 0 19.84512 2.65728c2.46272 0.27136 4.864 0.51712 7.168 0.73216 0.70144 0.07168 1.38752 0.128 2.06848 0.18944 3.87584 0.33792 7.49056 0.6144 10.76736 0.82432l0.43008 0.0256c9.99936 0.62976 16.83456 0.7168 18.57024 0.72704a284.27264 284.27264 0 0 1 10.29632 0.69632l0.5632 0.04608a286.81216 286.81216 0 0 1 7.82848 0.768c3.45088 0.33792 6.8608 0.8192 10.14272 1.29536 2.54976 0.37376 5.04832 0.74752 7.50592 1.21856l0.55808 0.09728c1.10592 0.16896 2.16576 0.38912 3.71712 0.6912 0.75264 0.12288 1.51552 0.2304 2.24256 0.41984l1.01376 0.2304c1.08032 0.20992 2.1248 0.4096 3.16416 0.6656l0.52736 0.11264c4.67456 0.96256 9.25184 2.06336 13.89568 3.3536 1.73056 0.45056 3.46112 0.93184 5.60128 1.60256 1.8432 0.52736 3.64032 1.09568 5.52448 1.6896a216.832 216.832 0 0 1 11.50976 3.96288l4.41344 1.7152c1.67936 0.65536 3.31776 1.31072 5.0688 2.05824 2.21696 0.92672 4.39296 1.8432 6.51776 2.86208l1.26976 0.57344c2.15552 0.96256 4.21888 1.9712 6.41536 3.09248a231.3472 231.3472 0 0 1 9.56928 5.10464l0.768 0.4352c0.96256 0.54784 1.93536 1.11616 2.98496 1.75616 1.43872 0.82944 2.88256 1.69472 4.2752 2.6112l0.50176 0.31744c1.04448 0.62976 2.08384 1.29536 3.48672 2.24256 1.29024 0.82432 2.61632 1.71008 3.98848 2.6624 1.63328 1.13664 3.2256 2.29376 4.80256 3.46112 0.69632 0.50688 1.3568 1.02912 2.02752 1.54624 19.39456 14.81728 33.54624 31.68256 41.51808 48.50688l0.01024 0.01536c1.39776 2.95424 2.59072 5.90336 3.60448 8.84736l0.22016 0.59392c0.51712 1.536 0.97792 3.06176 1.38752 4.58752 0.83968 3.10784 1.59232 6.1696 2.3296 9.22112 0.13312 0.56832 0.28672 1.152 0.40448 1.67424l1.14688 5.0432 0.58368 2.66752c0.54272 2.46784 1.0496 4.97664 1.54112 7.49056 0.34816 1.79712 0.6912 3.57888 1.00352 5.34528 0.29184 1.59744 0.5632 3.2256 0.83456 4.85376 0.37888 2.304 0.74752 4.59264 1.08032 6.84544a418.83648 418.83648 0 0 1 1.4848 11.21792c0.03584 0.32256 0.06656 0.6656 0.10752 0.99328 2.59072 22.99904 2.65216 42.87488 1.83296 58.1888l-0.0256 0.45568c-0.10752 1.98656-0.2304 3.89632-0.36352 5.72416l-0.128 1.5872c-0.10752 1.39776-0.22016 2.78528-0.33792 4.08576-0.14336 1.53088-0.29696 2.9952-0.44544 4.3776l-0.0768 0.70656c-0.19968 1.77664-0.40448 3.4304-0.60416 4.9408H324.52096l66.432-43.94496a15.36 15.36 0 1 0-16.9472-25.62048L289.51552 859.1872v-260.23424c0.25088 0.19968 0.52224 0.36352 0.77312 0.55808 1.44384 1.11616 2.90816 2.19136 4.41344 3.20512a90.624 90.624 0 0 0 11.6736 6.6048c1.64864 0.768 3.33312 1.4592 5.02784 2.11968 1.21856 0.47616 2.42688 0.96256 3.66592 1.38752 1.79712 0.60928 3.62496 1.11104 5.45792 1.60256 1.19808 0.32256 2.3808 0.67584 3.59424 0.9472 2.05312 0.45568 4.1472 0.768 6.24128 1.0752 1.03936 0.1536 2.05824 0.36864 3.10784 0.4864a88.8832 88.8832 0 0 0 9.58976 0.54272c47.93856 0 86.9376-38.97344 86.9376-86.8864 0-47.93344-38.99904-86.93248-86.9376-86.93248-3.24096 0-6.44608 0.19968-9.61536 0.54272-1.0496 0.11264-2.0736 0.32768-3.11296 0.4864-2.0992 0.3072-4.18816 0.61952-6.2464 1.0752-1.22368 0.27136-2.42176 0.62976-3.63008 0.95744-1.8176 0.4864-3.6352 0.97792-5.41696 1.5872-1.26976 0.43008-2.49856 0.92672-3.74272 1.408-1.65888 0.65024-3.30752 1.32608-4.92032 2.0736a86.528 86.528 0 0 0-3.712 1.85856 84.97152 84.97152 0 0 0-8.09472 4.82816c-1.41312 0.95744-2.7904 1.9712-4.15232 3.01568-0.30208 0.2304-0.61952 0.43008-0.91648 0.6656V446.6176l-0.02048-0.80896c-0.01024-0.49152-1.77664-49.46944 23.552-58.94144z m-24.07424 128.6656a55.28064 55.28064 0 0 1 9.70752-19.34848 55.6288 55.6288 0 0 1 44.40576-21.81632c31.0016 0 56.2176 25.22112 56.2176 56.21248 0 30.97088-25.22112 56.1664-56.2176 56.1664a55.81824 55.81824 0 0 1-40.19712-16.91648 58.80832 58.80832 0 0 1-4.2752-4.9152 54.784 54.784 0 0 1-9.64608-19.28704 56.2688 56.2688 0 0 1 0.00512-30.09536z m-178.64192 15.0528c0-7.61856 2.94912-14.76096 8.29952-20.11136a28.2624 28.2624 0 0 1 20.1216-8.30464h122.21952a86.96832 86.96832 0 0 0-1.62816 51.58912c0.47616 1.75104 1.00352 3.4816 1.59232 5.19168H138.73664c-15.67232 0-28.42112-12.7232-28.42112-28.3648z m50.59072 59.0848h97.88928v283.19232H160.90624V589.6704z m796.3392 363.69408l-68.06528-11.88864-94.71488 16.37376-54.69696-16.5376-95.66208 16.5376-54.70208-16.5376-95.67232 16.5376-54.69184-16.5376-95.67744 16.5376-55.04512-16.64512-77.50656 17.03936h-49.92512V903.5776h796.34432v49.78688z"  /></svg>